<svg width="96" height="12" viewBox="0 0 96 12" fill="none" xmlns="http://www.w3.org/2000/svg">
<path id="Caption" d="M0.857649 11H7.08208V9.90625H2.0906V6.44602H6.68435V5.35227H2.0906V1.91193H7.00254V0.818182H0.857649V11ZM10.491 6.40625C10.491 5.07386 11.3163 4.31818 12.4399 4.31818C13.5287 4.31818 14.1899 5.02912 14.1899 6.22727V11H15.3632V6.14773C15.3632 4.19886 14.3241 3.2642 12.778 3.2642C11.6246 3.2642 10.9087 3.78125 10.5507 4.55682H10.4513V3.36364H9.31774V11H10.491V6.40625ZM21.0802 3.36364H19.4495V1.53409H18.2762V3.36364H17.1228V4.35795H18.2762V9.13068C18.2762 10.4631 19.3501 11.0994 20.3444 11.0994C20.7819 11.0994 21.0603 11.0199 21.2194 10.9602L20.9808 9.90625C20.8814 9.92614 20.7223 9.96591 20.4637 9.96591C19.9467 9.96591 19.4495 9.80682 19.4495 8.8125V4.35795H21.0802V3.36364ZM26.2168 11.1591C27.7679 11.1591 28.9015 10.3835 29.2594 9.23011L28.1259 8.91193C27.8276 9.70739 27.1366 10.1051 26.2168 10.1051C24.8397 10.1051 23.8901 9.2152 23.8354 7.57955H29.3787V7.08239C29.3787 4.23864 27.6884 3.2642 26.0975 3.2642C24.0293 3.2642 22.6572 4.89489 22.6572 7.24148C22.6572 9.58807 24.0094 11.1591 26.2168 11.1591ZM23.8354 6.56534C23.915 5.37713 24.7552 4.31818 26.0975 4.31818C27.3702 4.31818 28.1856 5.27273 28.1856 6.56534H23.8354ZM31.4155 11H32.5888V6.16761C32.5888 5.13352 33.4042 4.37784 34.5178 4.37784C34.831 4.37784 35.1542 4.4375 35.2337 4.45739V3.2642C35.0995 3.25426 34.7913 3.24432 34.6172 3.24432C33.7025 3.24432 32.907 3.76136 32.6286 4.51705H32.5491V3.36364H31.4155V11ZM40.6761 3.36364H39.0454V1.53409H37.8721V3.36364H36.7187V4.35795H37.8721V9.13068C37.8721 10.4631 38.946 11.0994 39.9403 11.0994C40.3778 11.0994 40.6562 11.0199 40.8153 10.9602L40.5766 9.90625C40.4772 9.92614 40.3181 9.96591 40.0596 9.96591C39.5425 9.96591 39.0454 9.80682 39.0454 8.8125V4.35795H40.6761V3.36364ZM44.9401 11.179C46.2725 11.179 46.9685 10.4631 47.2072 9.96591H47.2668V11H48.4401V5.96875C48.4401 3.54261 46.5907 3.2642 45.6163 3.2642C44.4629 3.2642 43.1504 3.66193 42.5538 5.05398L43.6674 5.4517C43.9259 4.89489 44.5374 4.2983 45.656 4.2983C46.7349 4.2983 47.2668 4.87003 47.2668 5.84943V5.8892C47.2668 6.45597 46.6901 6.40625 45.2981 6.58523C43.8812 6.76918 42.335 7.08239 42.335 8.83239C42.335 10.3239 43.4884 11.179 44.9401 11.179ZM45.1191 10.125C44.1845 10.125 43.5083 9.70739 43.5083 8.89205C43.5083 7.99716 44.3237 7.71875 45.2384 7.59943C45.7356 7.53977 47.068 7.40057 47.2668 7.16193V8.2358C47.2668 9.19034 46.5112 10.125 45.1191 10.125ZM50.8337 11H52.0069V3.36364H50.8337V11ZM51.4302 2.09091C51.8876 2.09091 52.2655 1.73295 52.2655 1.29545C52.2655 0.857955 51.8876 0.5 51.4302 0.5C50.9729 0.5 50.595 0.857955 50.595 1.29545C50.595 1.73295 50.9729 2.09091 51.4302 2.09091ZM55.5812 6.40625C55.5812 5.07386 56.4065 4.31818 57.5301 4.31818C58.6189 4.31818 59.2801 5.02912 59.2801 6.22727V11H60.4534V6.14773C60.4534 4.19886 59.4143 3.2642 57.8681 3.2642C56.7147 3.2642 55.9988 3.78125 55.6409 4.55682H55.5414V3.36364H54.4079V11H55.5812V6.40625ZM62.8494 11H64.0227V6.22727C64.0227 5.10866 64.838 4.31818 65.7528 4.31818C66.6427 4.31818 67.2641 4.89986 67.2641 5.76989V11H68.4573V6.02841C68.4573 5.04403 69.0738 4.31818 70.1477 4.31818C70.9829 4.31818 71.6988 4.76065 71.6988 5.8892V11H72.8721V5.8892C72.8721 4.09446 71.9076 3.2642 70.5454 3.2642C69.4516 3.2642 68.6512 3.76633 68.2585 4.55682H68.1789C67.8011 3.74148 67.1349 3.2642 66.1306 3.2642C65.1363 3.2642 64.4005 3.74148 64.0823 4.55682H63.9829V3.36364H62.8494V11ZM78.471 11.1591C80.0222 11.1591 81.1557 10.3835 81.5137 9.23011L80.3801 8.91193C80.0818 9.70739 79.3908 10.1051 78.471 10.1051C77.0939 10.1051 76.1443 9.2152 76.0896 7.57955H81.633V7.08239C81.633 4.23864 79.9426 3.2642 78.3517 3.2642C76.2835 3.2642 74.9114 4.89489 74.9114 7.24148C74.9114 9.58807 76.2637 11.1591 78.471 11.1591ZM76.0896 6.56534C76.1692 5.37713 77.0094 4.31818 78.3517 4.31818C79.6245 4.31818 80.4398 5.27273 80.4398 6.56534H76.0896ZM84.8431 6.40625C84.8431 5.07386 85.6684 4.31818 86.7919 4.31818C87.8807 4.31818 88.5419 5.02912 88.5419 6.22727V11H89.7152V6.14773C89.7152 4.19886 88.6762 3.2642 87.13 3.2642C85.9766 3.2642 85.2607 3.78125 84.9027 4.55682H84.8033V3.36364H83.6698V11H84.8431V6.40625ZM95.4323 3.36364H93.8016V1.53409H92.6283V3.36364H91.4749V4.35795H92.6283V9.13068C92.6283 10.4631 93.7021 11.0994 94.6965 11.0994C95.134 11.0994 95.4124 11.0199 95.5715 10.9602L95.3328 9.90625C95.2334 9.92614 95.0743 9.96591 94.8158 9.96591C94.2987 9.96591 93.8016 9.80682 93.8016 8.8125V4.35795H95.4323V3.36364Z" fill="#787885"/>
</svg>
